<?xml version="1.0" encoding="UTF-8" standalone="no"?>
<svg width="78px" height="93px" viewBox="0 0 78 93" version="1.1" xmlns="http://www.w3.org/2000/svg" xmlns:xlink="http://www.w3.org/1999/xlink">
    <!-- Generator: Sketch 42 (36781) - http://www.bohemiancoding.com/sketch -->
    <title>Artboard 4</title>
    <desc>Created with Sketch.</desc>
    <defs></defs>
    <g id="Page-1" stroke="none" stroke-width="1" fill="none" fill-rule="evenodd">
        <g id="Artboard-4" fill-rule="nonzero" fill="#DD5A5A">
            <g id="Group-2" transform="translate(-7.000000, -2.000000)">
                <g id="Group" transform="translate(26.000000, 51.000000)">
                    <path d="M4.030237,3.84606847 C-0.685612855,8.72318753 -0.680212855,16.5525607 4.030237,21.4335388 L23.264637,41.3681224 C23.4535354,41.5654708 23.7163019,41.6772827 23.991187,41.6772827 C24.2660721,41.6772827 24.5288386,41.5654708 24.717737,41.3681224 C31.135337,34.7309859 37.550088,28.0862894 43.967738,21.4490047 C48.683588,16.5718016 48.683588,8.73870776 43.967738,3.86150965 C39.251938,-1.01568353 31.542987,-1.01579224 26.827137,3.86150965 L23.998987,6.779892 L21.170887,3.84606847 C18.812937,1.40746941 15.697137,0.186509647 12.592737,0.186509647 C9.488337,0.186509647 6.388137,1.40746447 4.030237,3.84606847 Z M19.717737,5.204892 L23.280237,8.89533318 C23.4691368,9.09269745 23.7319143,9.20451969 24.006812,9.20451969 C24.2817097,9.20451969 24.5444872,9.09269745 24.733387,8.89533318 L28.280237,5.23577435 C32.255337,1.12462165 38.539588,1.12471059 42.514638,5.23577435 C46.489638,9.34683318 46.489638,15.9791174 42.514638,20.0901812 C36.341238,26.4748235 30.172337,32.8681624 23.998987,39.2527059 L5.483387,20.0747647 C1.51128715,15.9588586 1.50833715,9.31586188 5.483387,5.204892 C7.470887,3.14936259 10.026137,2.13209788 12.592737,2.13209788 C15.159337,2.13209788 17.730187,3.14935765 19.717737,5.204892 Z" id="Shape"></path>
                </g>
                <g id="Group" transform="translate(15.909903, 31.909903) rotate(45.000000) translate(-15.909903, -31.909903) translate(3.909903, 21.409903)">
                    <path d="M2.0151185,1.92303424 C-0.342806427,4.36159376 -0.340106427,8.27628035 2.0151185,10.7167694 L11.6323185,20.6840612 C11.7267677,20.7827354 11.858151,20.8386414 11.9955935,20.8386414 C12.133036,20.8386414 12.2644193,20.7827354 12.3588685,20.6840612 C15.5676685,17.3654929 18.775044,14.0431447 21.983869,10.7245024 C24.341794,8.28590082 24.341794,4.36935388 21.983869,1.93075482 C19.625969,-0.507841765 15.7714935,-0.507896118 13.4135685,1.93075482 L11.9994935,3.389946 L10.5854435,1.92303424 C9.4064685,0.703734706 7.8485685,0.0932548235 6.2963685,0.0932548235 C4.7441685,0.0932548235 3.1940685,0.703732235 2.0151185,1.92303424 Z M9.8588685,2.602446 L11.6401185,4.44766659 C11.7345684,4.54634873 11.8659571,4.60225984 12.003406,4.60225984 C12.1408549,4.60225984 12.2722436,4.54634873 12.3666935,4.44766659 L14.1401185,2.61788718 C16.1276685,0.562310824 19.269794,0.562355294 21.257319,2.61788718 C23.244819,4.67341659 23.244819,7.98955871 21.257319,10.0450906 C18.170619,13.2374118 15.0861685,16.4340812 11.9994935,19.6263529 L2.7416935,10.0373824 C0.755643575,7.97942929 0.754168575,4.65793094 2.7416935,2.602446 C3.7354435,1.57468129 5.0130685,1.06604894 6.2963685,1.06604894 C7.5796685,1.06604894 8.8650935,1.57467882 9.8588685,2.602446 Z" id="Shape"></path>
                </g>
                <g id="Group" transform="translate(75.909903, 15.909903) scale(-1, 1) rotate(45.000000) translate(-75.909903, -15.909903) translate(63.909903, 5.409903)">
                    <path d="M2.0151185,1.92303424 C-0.342806427,4.36159376 -0.340106427,8.27628035 2.0151185,10.7167694 L11.6323185,20.6840612 C11.7267677,20.7827354 11.858151,20.8386414 11.9955935,20.8386414 C12.133036,20.8386414 12.2644193,20.7827354 12.3588685,20.6840612 C15.5676685,17.3654929 18.775044,14.0431447 21.983869,10.7245024 C24.341794,8.28590082 24.341794,4.36935388 21.983869,1.93075482 C19.625969,-0.507841765 15.7714935,-0.507896118 13.4135685,1.93075482 L11.9994935,3.389946 L10.5854435,1.92303424 C9.4064685,0.703734706 7.8485685,0.0932548235 6.2963685,0.0932548235 C4.7441685,0.0932548235 3.1940685,0.703732235 2.0151185,1.92303424 Z M9.8588685,2.602446 L11.6401185,4.44766659 C11.7345684,4.54634873 11.8659571,4.60225984 12.003406,4.60225984 C12.1408549,4.60225984 12.2722436,4.54634873 12.3666935,4.44766659 L14.1401185,2.61788718 C16.1276685,0.562310824 19.269794,0.562355294 21.257319,2.61788718 C23.244819,4.67341659 23.244819,7.98955871 21.257319,10.0450906 C18.170619,13.2374118 15.0861685,16.4340812 11.9994935,19.6263529 L2.7416935,10.0373824 C0.755643575,7.97942929 0.754168575,4.65793094 2.7416935,2.602446 C3.7354435,1.57468129 5.0130685,1.06604894 6.2963685,1.06604894 C7.5796685,1.06604894 8.8650935,1.57467882 9.8588685,2.602446 Z" id="Shape"></path>
                </g>
                <g id="Group" transform="translate(52.313708, 37.313708) scale(-1, 1) rotate(45.000000) translate(-52.313708, -37.313708) translate(43.813708, 29.813708)">
                    <path d="M1.40244798,1.33836074 C-0.238580601,3.03550802 -0.236701501,5.75998517 1.40244798,7.45847534 L8.09566366,14.3953419 C8.16139681,14.4640155 8.2528347,14.502924 8.34848963,14.502924 C8.44414456,14.502924 8.53558245,14.4640155 8.6013156,14.3953419 C10.8345218,12.0857411 13.0667366,9.77350958 15.2999601,7.46385718 C16.9409888,5.76668067 16.9409888,3.04090878 15.2999601,1.34373398 C13.6589489,-0.353439095 10.9763764,-0.353476922 9.33534781,1.34373398 L8.35120389,2.3592771 L7.36707736,1.33836074 C6.54655435,0.48977334 5.46231354,0.0649019098 4.38203972,0.0649019098 C3.3017659,0.0649019098 2.2229536,0.489771621 1.40244798,1.33836074 Z M6.86140802,1.81120621 L8.10109217,3.09541153 C8.16682582,3.16409065 8.25826751,3.20300272 8.35392684,3.20300272 C8.44958618,3.20300272 8.54102787,3.16409065 8.60676151,3.09541153 L9.84099976,1.8219527 C11.2242611,0.391347546 13.4110643,0.391378496 14.7943082,1.8219527 C16.1775347,3.25252518 16.1775347,5.56043751 14.7943082,6.99101171 C12.6460791,9.21274924 10.4994156,11.437513 8.35120389,13.6592161 L1.90811732,6.98564706 C0.525899994,5.55338781 0.524873449,3.24174774 1.90811732,1.81120621 C2.59973059,1.09591997 3.48891036,0.741930654 4.38203972,0.741930654 C5.27516908,0.741930654 6.16977736,1.09591825 6.86140802,1.81120621 Z" id="Shape"></path>
                </g>
            </g>
        </g>
    </g>
</svg>