<?xml version="1.0" encoding="UTF-8" standalone="no"?>
<svg width="120px" height="24px" viewBox="0 0 120 24" version="1.1" xmlns="http://www.w3.org/2000/svg" xmlns:xlink="http://www.w3.org/1999/xlink">
    <!-- Generator: Sketch 39.1 (31720) - http://www.bohemiancoding.com/sketch -->
    <title>logo</title>
    <desc>Created with Sketch.</desc>
    <defs></defs>
    <g id="Page-1" stroke="none" stroke-width="1" fill="none" fill-rule="evenodd">
        <g id="menu" transform="translate(-100.000000, -26.000000)">
            <g id="Group-3">
                <g id="Group-2" transform="translate(13.000000, 26.000000)">
                    <g id="logo" transform="translate(87.000000, 0.000000)">
                        <path d="M52.7475,5.81413953 C52.7475,6.1735814 52.8519444,6.49506977 53.0608333,6.77804651 C53.2697222,7.0615814 53.5458333,7.32418605 53.8902778,7.56669767 C54.2344444,7.8092093 54.6252778,8.03944186 55.0613889,8.25739535 C55.4980556,8.47506977 55.9452778,8.7 56.4036111,8.93134884 C56.8616667,9.16325581 57.3094444,9.4107907 57.7455556,9.67506977 C58.1825,9.93962791 58.5725,10.2376744 58.9166667,10.5700465 C59.2611111,10.9024186 59.5380556,11.2780465 59.7469444,11.6972093 C59.955,12.1172093 60.0602778,12.5966512 60.0602778,13.1355349 C60.0602778,13.6261395 59.9811111,14.0768372 59.8236111,14.488186 C59.6669444,14.8992558 59.4508333,15.2684651 59.1772222,15.5952558 C58.9033333,15.9220465 58.5797222,16.2111628 58.2052778,16.4614884 C57.8311111,16.712093 57.4275,16.9191628 56.9938889,17.0824186 C56.5594444,17.2459535 56.1044444,17.3698605 55.6272222,17.4544186 C55.15,17.5386977 54.6697222,17.5808372 54.1877778,17.5808372 C53.5094444,17.5808372 52.8502778,17.4979535 52.2108333,17.3316279 C51.5708333,17.1655814 51.0016667,16.9149767 50.5025,16.580093 C50.0038889,16.2449302 49.6041667,15.8254884 49.3027778,15.3214884 C49.0019444,14.8177674 48.8516667,14.227814 48.8516667,13.5524651 C48.8516667,13.203907 48.9069444,12.8974884 49.0186111,12.6332093 C49.1294444,12.3692093 49.2680556,12.1484651 49.4333333,11.9712558 C49.5986111,11.7943256 49.7791667,11.6606512 49.9738889,11.5710698 C50.1691667,11.4812093 50.3513889,11.4362791 50.5191667,11.4362791 C50.6922222,11.4362791 50.8372222,11.484 50.9541667,11.5788837 C51.0705556,11.6743256 51.1291667,11.8230698 51.1291667,12.0245581 C51.1291667,12.1172093 51.1180556,12.2151628 51.0966667,12.3186977 C51.0744444,12.4219535 51.0516667,12.5349767 51.0269444,12.6577674 C51.0033333,12.7802791 50.9797222,12.9147907 50.9583333,13.0621395 C50.9369444,13.2092093 50.9258333,13.3699535 50.9258333,13.544093 C50.9258333,13.9258605 51.0119444,14.2554419 51.1861111,14.5331163 C51.3594444,14.8110698 51.5897222,15.0396279 51.8769444,15.2193488 C52.165,15.3993488 52.4958333,15.5330233 52.8694444,15.620093 C53.2436111,15.7071628 53.6313889,15.7506977 54.0325,15.7506977 C54.5041667,15.7506977 54.9766667,15.6934884 55.4483333,15.5790698 C55.92,15.4646512 56.3425,15.2955349 56.7169444,15.0722791 C57.0911111,14.8493023 57.395,14.5752558 57.6277778,14.2509767 C57.8611111,13.9269767 57.9775,13.5552558 57.9775,13.1355349 C57.9775,12.7490233 57.8730556,12.4029767 57.665,12.0979535 C57.4558333,11.7926512 57.1788889,11.5107907 56.8347222,11.252093 C56.4905556,10.9933953 56.0988889,10.7497674 55.6597222,10.5206512 C55.2202778,10.292093 54.7733333,10.0604651 54.3175,9.82632558 C53.8616667,9.59218605 53.4144444,9.34576744 52.9752778,9.0867907 C52.5361111,8.82809302 52.1444444,8.54344186 51.8002778,8.23255814 C51.4561111,7.92223256 51.1788889,7.57506977 50.97,7.1907907 C50.7619444,6.8067907 50.6575,6.36948837 50.6575,5.87944186 C50.6575,5.42176744 50.7675,4.97106977 50.9866667,4.52706977 C51.2066667,4.08306977 51.5366667,3.68539535 51.9791667,3.33404651 C52.4205556,2.98269767 52.9730556,2.69804651 53.6344444,2.47981395 C54.2961111,2.2624186 55.0708333,2.15302326 55.9602778,2.15302326 C56.5244444,2.15302326 57.0761111,2.23786047 57.6158333,2.40613953 C58.1555556,2.57525581 58.6366667,2.81497674 59.0591667,3.12530233 C59.4825,3.43618605 59.8227778,3.8067907 60.08,4.23683721 C60.3380556,4.66744186 60.4661111,5.14381395 60.4661111,5.66706977 C60.4661111,5.97739535 60.4138889,6.29581395 60.3080556,6.62316279 C60.2019444,6.94995349 60.0325,7.2904186 59.8,7.64427907 C59.5719444,7.98781395 59.3236111,8.24204651 59.0552778,8.40837209 C58.7869444,8.57497674 58.5441667,8.6575814 58.3272222,8.6575814 C58.165,8.6575814 58.0319444,8.61013953 57.9291667,8.51497674 C57.8255556,8.41953488 57.7741667,8.27637209 57.7741667,8.08548837 C57.7741667,7.944 57.8066667,7.77655814 57.8722222,7.58316279 C57.9372222,7.38976744 58.0477778,7.16762791 58.2052778,6.91730233 C58.3516667,6.6775814 58.4602778,6.45293023 58.5305556,6.24306977 C58.6011111,6.0332093 58.6366667,5.8384186 58.6366667,5.65869767 C58.6366667,5.38074419 58.5622222,5.13711628 58.4127778,4.92725581 C58.2638889,4.71767442 58.0575,4.54213953 57.7947222,4.40009302 C57.5319444,4.25860465 57.2152778,4.15255814 56.8475,4.08167442 C56.4786111,4.01106977 56.0741667,3.97534884 55.635,3.97534884 C55.1469444,3.97534884 54.7227778,4.03144186 54.3625,4.14306977 C54.0016667,4.25469767 53.7002778,4.39897674 53.4597222,4.57590698 C53.2183333,4.75311628 53.0394444,4.95069767 52.9222222,5.16865116 C52.8061111,5.38632558 52.7475,5.60148837 52.7475,5.81413953" id="Fill-36" fill="#515251"></path>
                        <path d="M64.7269444,6.4024186 C65.0466667,5.56883721 65.2783333,4.86613953 65.4225,4.29404651 C65.5655556,3.72195349 65.6377778,3.3 65.6377778,3.02762791 C65.6377778,2.61348837 65.5838889,2.40613953 65.4755556,2.40613953 C65.3347222,2.40613953 65.1255556,2.63804651 64.8486111,3.10102326 C64.5725,3.56427907 64.2472222,4.23683721 63.8730556,5.11925581 C63.7802778,5.41897674 63.695,5.7295814 63.6166667,6.05106977 C63.5383333,6.37255814 63.4677778,6.69237209 63.4052778,7.01106977 C63.3427778,7.32976744 63.2858333,7.64316279 63.2344444,7.95069767 C63.1830556,8.2587907 63.1377778,8.55153488 63.1005556,8.8292093 C63.0080556,9.47776744 62.9375,10.112093 62.8886111,10.7333023 C63.035,10.3900465 63.1947222,10.0169302 63.3688889,9.61367442 C63.5422222,9.2104186 63.7130556,8.81190698 63.8808333,8.41674419 C64.0494444,8.0215814 64.2077778,7.64874419 64.3572222,7.29739535 C64.5061111,6.94576744 64.6294444,6.64744186 64.7269444,6.4024186 L64.7269444,6.4024186 Z M64.0027778,11.4524651 C64.225,11.1583256 64.4752778,10.8424186 64.7513889,10.5044651 C65.0275,10.1667907 65.3155556,9.852 65.6138889,9.56065116 C65.9113889,9.26930233 66.2083333,9.0267907 66.5041667,8.83339535 C66.7994444,8.64 67.0780556,8.54344186 67.3383333,8.54344186 C67.4030556,8.54344186 67.4758333,8.55544186 67.5575,8.58 C67.6388889,8.60455814 67.7158333,8.64948837 67.7894444,8.7147907 C67.8622222,8.78037209 67.9238889,8.87134884 67.9722222,8.98855814 C68.0211111,9.10604651 68.0458333,9.25702326 68.0458333,9.44232558 C68.0458333,9.81265116 67.9941667,10.1737674 67.8905556,10.5251163 C67.7877778,10.876186 67.6752778,11.2275349 67.5536111,11.5788837 C67.4316667,11.9302326 67.32,12.2888372 67.2194444,12.6538605 C67.12,13.0186047 67.0691667,13.399814 67.0691667,13.7977674 C67.0691667,14.0157209 67.1016667,14.1898605 67.1672222,14.3204651 C67.2322222,14.4513488 67.3161111,14.5163721 67.4188889,14.5163721 C67.5494444,14.5163721 67.6872222,14.4895814 67.8344444,14.4348837 C67.9808333,14.3804651 68.1272222,14.3098605 68.2736111,14.2222326 C68.42,14.1351628 68.5633333,14.035814 68.7041667,13.924186 C68.845,13.8125581 68.9780556,13.6967442 69.1030556,13.5767442 C69.4013889,13.2993488 69.6941667,12.9831628 69.9813889,12.6290233 L70.1197222,14.8026977 C70.0216667,14.8791628 69.8983333,14.9743256 69.7494444,15.0884651 C69.6008333,15.2028837 69.4352778,15.3242791 69.2533333,15.4523721 C69.0713889,15.580186 68.875,15.7099535 68.6638889,15.8405581 C68.4525,15.9714419 68.2397222,16.0869767 68.0252778,16.1877209 C67.8108333,16.2887442 67.5969444,16.3716279 67.3825,16.4369302 C67.1680556,16.5025116 66.9638889,16.5351628 66.7686111,16.5351628 C66.4702778,16.5351628 66.2113889,16.4547907 65.9913889,16.2940465 C65.7722222,16.1335814 65.5916667,15.9293023 65.4508333,15.6812093 C65.31,15.4331163 65.2038889,15.1621395 65.1336111,14.868 C65.0630556,14.5738605 65.0275,14.295907 65.0275,14.0346977 C65.0275,13.8602791 65.0513889,13.6654884 65.0972222,13.4503256 C65.1430556,13.2354419 65.2,13.0186047 65.2680556,12.8009302 C65.3352778,12.5829767 65.4113889,12.3703256 65.4952778,12.1632558 C65.58,11.9564651 65.6583333,11.7708837 65.7319444,11.6076279 C65.8047222,11.444093 65.8686111,11.3109767 65.9225,11.2071628 C65.9772222,11.103907 66.0119444,11.043907 66.0286111,11.0274419 L65.8577778,11.0028837 C65.765,11.0628837 65.6091667,11.2155349 65.39,11.4605581 C65.17,11.7055814 64.9222222,12.0150698 64.6452778,12.387907 C64.3691667,12.7610233 64.0827778,13.1804651 63.7875,13.6462326 C63.4916667,14.1122791 63.225,14.5931163 62.9866667,15.0884651 C62.8672222,15.3337674 62.7691667,15.5475349 62.6938889,15.7300465 C62.6177778,15.9125581 62.5427778,16.0624186 62.47,16.1796279 C62.3963889,16.2968372 62.3163889,16.3853023 62.2302778,16.4453023 C62.1430556,16.5053023 62.0322222,16.5351628 61.8961111,16.5351628 C61.7172222,16.5351628 61.5763889,16.4832558 61.4736111,16.3797209 C61.3708333,16.276186 61.2916667,16.1388837 61.2377778,15.9669767 C61.1833333,15.7956279 61.1483333,15.6008372 61.1316667,15.3831628 C61.1158333,15.1652093 61.1072222,14.9413953 61.1072222,14.7128372 C61.1072222,14.347814 61.1111111,13.8697674 61.12,13.2786977 C61.1277778,12.6876279 61.1530556,12.0323721 61.1966667,11.3132093 C61.2402778,10.5943256 61.3027778,9.83748837 61.3841667,9.04186047 C61.4658333,8.24651163 61.5805556,7.46065116 61.73,6.68427907 C61.8788889,5.90790698 62.0655556,5.16697674 62.2911111,4.46148837 C62.5158333,3.75627907 62.7897222,3.13534884 63.1125,2.59869767 C63.4352778,2.06204651 63.8127778,1.63562791 64.2472222,1.31944186 C64.6808333,1.00381395 65.1794444,0.845581395 65.7436111,0.845581395 C66.0363889,0.845581395 66.2763889,0.889395349 66.4638889,0.976465116 C66.6505556,1.06353488 66.7994444,1.18632558 66.9108333,1.344 C67.0216667,1.50223256 67.0991667,1.69144186 67.1427778,1.91218605 C67.1863889,2.13265116 67.2077778,2.37934884 67.2077778,2.65144186 C67.2077778,3.05497674 67.1508333,3.50148837 67.0366667,3.99153488 C66.9227778,4.48213953 66.7725,4.99116279 66.5858333,5.52 C66.3980556,6.04827907 66.1852778,6.58325581 65.9472222,7.12548837 C65.7080556,7.66772093 65.4644444,8.1932093 65.215,8.70251163 C64.9658333,9.21209302 64.7205556,9.69265116 64.4791667,10.1450233 C64.2377778,10.5971163 64.025,10.9950698 63.8405556,11.3380465 L64.0027778,11.4524651 L64.0027778,11.4524651 Z" id="Fill-37" fill="#515251"></path>
                        <path d="M72.015,14.9659535 C72.1994444,14.9659535 72.3783333,14.872186 72.5516667,14.6843721 C72.725,14.4962791 72.8769444,14.2593488 73.0075,13.9730233 C73.1372222,13.6872558 73.2416667,13.3713488 73.32,13.0253023 C73.3991667,12.6795349 73.4380556,12.3485581 73.4380556,12.0323721 C73.4380556,11.7820465 73.4188889,11.5490233 73.3816667,11.3341395 C73.3438889,11.1186977 73.2869444,10.932 73.2108333,10.7743256 C73.135,10.616093 73.0366667,10.4907907 72.9180556,10.3981395 C72.7986111,10.3057674 72.6544444,10.2591628 72.4866667,10.2591628 C72.2644444,10.2591628 72.0530556,10.3546047 71.8522222,10.5454884 C71.6519444,10.736093 71.4755556,10.9797209 71.3236111,11.2766512 C71.1716667,11.5735814 71.0519444,11.9017674 70.9658333,12.2614884 C70.8786111,12.6206512 70.8352778,12.9669767 70.8352778,13.2993488 C70.8352778,13.527907 70.8575,13.7433488 70.9008333,13.9448372 C70.9436111,14.1463256 71.0116667,14.3221395 71.1041667,14.4717209 C71.1961111,14.6218605 71.3180556,14.7415814 71.47,14.8314419 C71.6219444,14.9213023 71.8038889,14.9659535 72.015,14.9659535 L72.015,14.9659535 Z M74.5283333,10.4146047 C74.685,10.7305116 74.8030556,11.064 74.8822222,11.4156279 C74.9605556,11.7669767 75,12.1035349 75,12.4247442 C75,12.7465116 74.9644444,13.0702326 74.8938889,13.3970233 C74.8236111,13.723814 74.7222222,14.04 74.5894444,14.3453023 C74.4563889,14.6500465 74.2933333,14.9363721 74.1011111,15.2028837 C73.9088889,15.4702326 73.6888889,15.7015814 73.4427778,15.8977674 C73.1958333,16.0939535 72.9258333,16.2491163 72.6330556,16.3632558 C72.3402778,16.4779535 72.0286111,16.5351628 71.6977778,16.5351628 C71.2205556,16.5351628 70.8122222,16.4302326 70.4736111,16.2206512 C70.135,16.0107907 69.8563889,15.7373023 69.6394444,15.3993488 C69.4227778,15.0613953 69.2644444,14.680186 69.1638889,14.2554419 C69.0633333,13.8304186 69.0136111,13.399814 69.0136111,12.964186 C69.0136111,12.3647442 69.1030556,11.8049302 69.2819444,11.2847442 C69.4605556,10.7648372 69.7169444,10.3124651 70.0511111,9.92846512 C70.3841667,9.54446512 70.7916667,9.24195349 71.2744444,9.0212093 C71.7572222,8.80074419 72.3,8.69051163 72.9013889,8.69051163 C73.4166667,8.69051163 73.8994444,8.77088372 74.3497222,8.93134884 C74.7991667,9.09209302 75.2208333,9.30753488 75.6141667,9.57711628 C76.0075,9.8464186 76.3730556,10.155907 76.7125,10.5044651 C77.0511111,10.8530233 77.3669444,11.2127442 77.6597222,11.5833488 L77.5055556,12.7353488 C77.3591667,12.5391628 77.1605556,12.3265116 76.9111111,12.0979535 C76.6619444,11.8691163 76.3975,11.6455814 76.1183333,11.427907 C75.8388889,11.2099535 75.5641667,11.0045581 75.2927778,10.8108837 C75.0213889,10.6177674 74.7888889,10.4556279 74.5933333,10.3247442 L74.5283333,10.4146047 L74.5283333,10.4146047 Z" id="Fill-38" fill="#515251"></path>
                        <path d="M80.1730556,12.4984186 C80.0155556,13.0922791 79.8305556,13.6356279 79.6161111,14.1284651 C79.4016667,14.6218605 79.1727778,15.0463256 78.9283333,15.4032558 C78.6844444,15.760186 78.4322222,16.0381395 78.1716667,16.2368372 C77.9122222,16.435814 77.6566667,16.5351628 77.4072222,16.5351628 C76.9847222,16.5351628 76.6744444,16.2217674 76.4758333,15.5952558 C76.2780556,14.9687442 76.1791667,14.0427907 76.1791667,12.8171163 L76.1791667,12.3552558 C76.1791667,12.2221395 76.1822222,12.0884651 76.1877778,11.9547907 C76.1925,11.8213953 76.2013889,11.6771163 76.2116667,11.5216744 C76.2227778,11.3665116 76.2361111,11.180093 76.2527778,10.9618605 C76.2583333,10.908 76.2702778,10.8136744 76.2891667,10.68 C76.3080556,10.5466047 76.3383333,10.3953488 76.3786111,10.2265116 C76.4197222,10.0579535 76.4736111,9.8824186 76.5416667,9.69934884 C76.6088889,9.51711628 76.6958333,9.3507907 76.8019444,9.20093023 C76.9072222,9.05162791 77.0322222,8.92744186 77.1755556,8.8292093 C77.3194444,8.73097674 77.4911111,8.68213953 77.6922222,8.68213953 L77.8877778,8.69860465 C78.1258333,8.69860465 78.3086111,8.74632558 78.4369444,8.84148837 C78.5636111,8.93693023 78.6275,9.06334884 78.6275,9.2215814 L78.0586111,13.6423256 L78.1638889,13.6339535 C78.4027778,13.0786047 78.6102778,12.5706977 78.7866667,12.1102326 C78.9622222,11.6500465 79.1252778,11.2373023 79.2741667,10.872 C79.4236111,10.5072558 79.5669444,10.1888372 79.7052778,9.91618605 C79.8438889,9.64381395 79.9941667,9.41748837 80.1563889,9.23804651 C80.3194444,9.05832558 80.5022222,8.92297674 80.7055556,8.83339535 C80.9091667,8.74353488 81.1519444,8.69860465 81.4336111,8.69860465 C81.6719444,8.69860465 81.8555556,8.74632558 81.9822222,8.84148837 C82.1102778,8.93693023 82.1736111,9.06334884 82.1736111,9.2215814 L81.5072222,13.6423256 L81.6213889,13.6339535 L83.5647222,9.2704186 C83.6297222,9.11832558 83.7705556,8.98325581 83.9875,8.86632558 C84.2041667,8.74911628 84.4622222,8.69051163 84.7605556,8.69051163 C85.0691667,8.69051163 85.3183333,8.7544186 85.5083333,8.88251163 C85.6983333,9.01060465 85.7933333,9.17525581 85.7933333,9.37674419 C85.7933333,9.52939535 85.7672222,9.69265116 85.7155556,9.86706977 C85.6641667,10.0412093 85.6088889,10.2033488 85.5494444,10.3532093 C85.4894444,10.5033488 85.4325,10.6311628 85.3786111,10.7372093 C85.3238889,10.8435349 85.2947222,10.9024186 85.2891667,10.9130233 C85.1697222,11.1309767 85.0597222,11.3324651 84.96,11.5177674 C84.8594444,11.7027907 84.7708333,11.8663256 84.6947222,12.008093 C84.6030556,12.1716279 84.5213889,12.3242791 84.4511111,12.4657674 C84.5269444,12.6781395 84.6244444,12.8687442 84.7438889,13.0378605 C84.8466667,13.1793488 84.9741667,13.3099535 85.1261111,13.4296744 C85.2780556,13.5496744 85.46,13.6096744 85.6713889,13.6096744 C85.8502778,13.6096744 86.0558333,13.5619535 86.2894444,13.4667907 C86.5227778,13.3713488 86.7419444,13.263907 86.9486111,13.143907 C87.1922222,13.008 87.4416667,12.8525581 87.6963889,12.6781395 L87.6963889,14.5984186 C87.3386111,14.8272558 86.9683333,15.0097674 86.5861111,15.1456744 C86.2038889,15.2821395 85.8366667,15.3499535 85.4838889,15.3499535 C85.2075,15.3499535 84.9455556,15.3175814 84.6994444,15.2522791 C84.4527778,15.1866977 84.2358333,15.0834419 84.0483333,14.9413953 C83.8616667,14.799907 83.7119444,14.6162791 83.6011111,14.3899535 C83.4902778,14.163907 83.4319444,13.8904186 83.4263889,13.5689302 C83.2419444,14.0045581 83.0497222,14.4036279 82.8486111,14.7658605 C82.6483333,15.1283721 82.4419444,15.439814 82.2305556,15.7015814 C82.0191667,15.9630698 81.8047222,16.1673488 81.5880556,16.3144186 C81.3711111,16.4614884 81.1544444,16.5351628 80.9375,16.5351628 C80.8616667,16.5351628 80.795,16.4765581 80.7380556,16.3593488 C80.6811111,16.2421395 80.6336111,16.084186 80.5955556,15.8854884 C80.5577778,15.6867907 80.5269444,15.4551628 80.5022222,15.1906047 C80.4777778,14.9266047 80.4588889,14.6472558 80.4452778,14.3531163 C80.4319444,14.0589767 80.4225,13.7567442 80.4169444,13.4464186 C80.4113889,13.1355349 80.4088889,12.8333023 80.4088889,12.5391628 L80.1730556,12.4984186" id="Fill-39" fill="#515251"></path>
                        <path d="M87.2169444,14.8272558 C87.2169444,14.5875349 87.2302778,14.308186 87.2572222,13.9897674 C87.2841667,13.6710698 87.3205556,13.3347907 87.3672222,12.9803721 C87.4130556,12.6262326 87.4669444,12.2653953 87.5294444,11.8975814 C87.5919444,11.5300465 87.6583333,11.180093 87.7288889,10.8477209 C87.7991667,10.5156279 87.8697222,10.2103256 87.9402778,9.93237209 C88.0105556,9.6544186 88.0816667,9.42586047 88.1522222,9.24586047 C88.195,9.12613953 88.2386111,9.03069767 88.2819444,8.96009302 C88.3255556,8.8892093 88.3752778,8.83339535 88.4322222,8.79265116 C88.4894444,8.75190698 88.5597222,8.72427907 88.6436111,8.71088372 C88.7283333,8.6972093 88.8319444,8.69051163 88.9569444,8.69051163 C89.0977778,8.69051163 89.2077778,8.6972093 89.2861111,8.71088372 C89.3652778,8.72427907 89.4230556,8.7572093 89.4611111,8.80911628 C89.4991667,8.86074419 89.5227778,8.93553488 89.5308333,9.03348837 C89.5386111,9.13172093 89.5425,9.26539535 89.5425,9.43395349 L89.5425,10.1653953 C89.5425,10.4514419 89.5480556,10.7333023 89.5591667,11.0112558 L89.6486111,11.0112558 C89.7569444,10.7933023 89.8788889,10.5493953 90.0141667,10.279814 C90.1502778,10.0099535 90.3069444,9.75823256 90.4866667,9.52381395 C90.6655556,9.28967442 90.8688889,9.09209302 91.0961111,8.93134884 C91.3238889,8.77088372 91.5866667,8.69051163 91.885,8.69051163 C91.9877778,8.69051163 92.0883333,8.70809302 92.1863889,8.74353488 C92.2838889,8.77869767 92.3691667,8.8292093 92.4422222,8.89451163 C92.5155556,8.96009302 92.5741667,9.04046512 92.6169444,9.13590698 C92.6605556,9.23106977 92.6827778,9.3387907 92.6827778,9.45851163 C92.6827778,9.55116279 92.6683333,9.68037209 92.6413889,9.8464186 C92.6147222,10.0130233 92.5844444,10.1871628 92.5522222,10.3696744 C92.5197222,10.552186 92.4894444,10.7291163 92.4627778,10.9007442 C92.4358333,11.0723721 92.4222222,11.2155349 92.4222222,11.3296744 C92.4222222,11.5261395 92.4413889,11.6893953 92.4791667,11.8202791 C92.5172222,11.9508837 92.5672222,12.055814 92.6297222,12.1345116 C92.6922222,12.2137674 92.7625,12.2693023 92.8408333,12.3022326 C92.9191667,12.3348837 93.0025,12.3513488 93.0894444,12.3513488 C93.3330556,12.3513488 93.5855556,12.2966512 93.8452778,12.187814 C94.1055556,12.0789767 94.3444444,11.9564651 94.5613889,11.8202791 C94.8161111,11.6620465 95.0652778,11.4823256 95.31,11.2808372 L95.1872222,13.1927442 C95.0463889,13.2856744 94.8866667,13.3892093 94.7077778,13.5033488 C94.5288889,13.6177674 94.3375,13.7254884 94.1338889,13.8259535 C93.9305556,13.9269767 93.7194444,14.0115349 93.5,14.0796279 C93.28,14.1477209 93.0561111,14.1817674 92.8291667,14.1817674 C92.4222222,14.1817674 92.0938889,14.0986047 91.8447222,13.9325581 C91.5952778,13.7665116 91.3975,13.5485581 91.2511111,13.2786977 C91.1047222,13.0091163 90.9963889,12.7066047 90.9258333,12.3714419 C90.8547222,12.0368372 90.7977778,11.6972093 90.755,11.3542326 L90.6244444,11.3542326 L89.1683333,15.432 C89.0922222,15.6443721 89.0211111,15.819907 88.9530556,15.9591628 C88.885,16.0978605 88.8161111,16.2111628 88.7458333,16.2982326 C88.6752778,16.3853023 88.5994444,16.4464186 88.5177778,16.4818605 C88.4363889,16.5175814 88.3469444,16.5351628 88.2494444,16.5351628 C88.0272222,16.5351628 87.8483333,16.4874419 87.7130556,16.392 C87.5769444,16.2968372 87.4725,16.1684651 87.3997222,16.008 C87.3261111,15.8472558 87.2777778,15.6650233 87.2533333,15.4604651 C87.2286111,15.256186 87.2169444,15.0452093 87.2169444,14.8272558" id="Fill-40" fill="#515251"></path>
                        <path d="M96.7247222,14.9659535 C96.9083333,14.9659535 97.0880556,14.872186 97.2613889,14.6843721 C97.4347222,14.4962791 97.5866667,14.2593488 97.7163889,13.9730233 C97.8469444,13.6872558 97.9513889,13.3713488 98.0297222,13.0253023 C98.1080556,12.6795349 98.1477778,12.3485581 98.1477778,12.0323721 C98.1477778,11.7820465 98.1286111,11.5490233 98.0908333,11.3341395 C98.0527778,11.1186977 97.9958333,10.932 97.9197222,10.7743256 C97.8438889,10.616093 97.7463889,10.4907907 97.6269444,10.3981395 C97.5083333,10.3057674 97.3641667,10.2591628 97.1963889,10.2591628 C96.9741667,10.2591628 96.7619444,10.3546047 96.5619444,10.5454884 C96.3608333,10.736093 96.1852778,10.9797209 96.0333333,11.2766512 C95.8813889,11.5735814 95.7616667,11.9017674 95.6755556,12.2614884 C95.5886111,12.6206512 95.545,12.9669767 95.545,13.2993488 C95.545,13.527907 95.5663889,13.7433488 95.6097222,13.9448372 C95.6533333,14.1463256 95.7213889,14.3221395 95.8133333,14.4717209 C95.9058333,14.6218605 96.0277778,14.7415814 96.1797222,14.8314419 C96.3316667,14.9213023 96.5127778,14.9659535 96.7247222,14.9659535 L96.7247222,14.9659535 Z M99.2380556,10.4146047 C99.3947222,10.7305116 99.5127778,11.064 99.5919444,11.4156279 C99.6702778,11.7669767 99.7097222,12.1035349 99.7097222,12.4247442 C99.7097222,12.7465116 99.6741667,13.0702326 99.6038889,13.3970233 C99.5333333,13.723814 99.4313889,14.04 99.2991667,14.3453023 C99.1661111,14.6500465 99.0030556,14.9363721 98.8108333,15.2028837 C98.6186111,15.4702326 98.3986111,15.7015814 98.1516667,15.8977674 C97.9047222,16.0939535 97.6355556,16.2491163 97.3427778,16.3632558 C97.05,16.4779535 96.7383333,16.5351628 96.4075,16.5351628 C95.9302778,16.5351628 95.5219444,16.4302326 95.1833333,16.2206512 C94.8438889,16.0107907 94.5661111,15.7373023 94.3491667,15.3993488 C94.1325,15.0613953 93.9741667,14.680186 93.8736111,14.2554419 C93.7730556,13.8304186 93.7233333,13.399814 93.7233333,12.964186 C93.7233333,12.3647442 93.8127778,11.8049302 93.9916667,11.2847442 C94.1702778,10.7648372 94.4266667,10.3124651 94.76,9.92846512 C95.0938889,9.54446512 95.5013889,9.24195349 95.9841667,9.0212093 C96.4669444,8.80074419 97.0088889,8.69051163 97.6111111,8.69051163 C98.1263889,8.69051163 98.6091667,8.77088372 99.0586111,8.93134884 C99.5088889,9.09209302 99.9305556,9.30753488 100.323889,9.57711628 C100.716389,9.8464186 101.082778,10.155907 101.421389,10.5044651 C101.760278,10.8530233 102.076667,11.2127442 102.369444,11.5833488 L102.214444,12.7353488 C102.068056,12.5391628 101.870278,12.3265116 101.620833,12.0979535 C101.371667,11.8691163 101.107222,11.6455814 100.828056,11.427907 C100.548611,11.2099535 100.273333,11.0045581 100.0025,10.8108837 C99.7311111,10.6177674 99.4977778,10.4556279 99.3030556,10.3247442 L99.2380556,10.4146047 L99.2380556,10.4146047 Z" id="Fill-41" fill="#515251"></path>
                        <path d="M103.825556,14.9659535 C104.009167,14.9659535 104.188889,14.872186 104.362222,14.6843721 C104.535556,14.4962791 104.6875,14.2593488 104.817222,13.9730233 C104.947778,13.6872558 105.052222,13.3713488 105.130556,13.0253023 C105.208889,12.6795349 105.248333,12.3485581 105.248333,12.0323721 C105.248333,11.7820465 105.229444,11.5490233 105.191389,11.3341395 C105.153333,11.1186977 105.096389,10.932 105.020556,10.7743256 C104.944444,10.616093 104.847222,10.4907907 104.727778,10.3981395 C104.608889,10.3057674 104.465,10.2591628 104.297222,10.2591628 C104.074722,10.2591628 103.862778,10.3546047 103.6625,10.5454884 C103.461667,10.736093 103.285833,10.9797209 103.133889,11.2766512 C102.981944,11.5735814 102.8625,11.9017674 102.776389,12.2614884 C102.689167,12.6206512 102.645833,12.9669767 102.645833,13.2993488 C102.645833,13.527907 102.666944,13.7433488 102.710556,13.9448372 C102.754167,14.1463256 102.822222,14.3221395 102.913889,14.4717209 C103.006667,14.6218605 103.128333,14.7415814 103.280278,14.8314419 C103.432222,14.9213023 103.613611,14.9659535 103.825556,14.9659535 L103.825556,14.9659535 Z M106.338889,10.4146047 C106.495556,10.7305116 106.613611,11.064 106.6925,11.4156279 C106.770833,11.7669767 106.810556,12.1035349 106.810556,12.4247442 C106.810556,12.7465116 106.775,13.0702326 106.704444,13.3970233 C106.634167,13.723814 106.531944,14.04 106.399722,14.3453023 C106.266944,14.6500465 106.103889,14.9363721 105.911667,15.2028837 C105.719167,15.4702326 105.499167,15.7015814 105.2525,15.8977674 C105.005556,16.0939535 104.736389,16.2491163 104.443611,16.3632558 C104.150833,16.4779535 103.839167,16.5351628 103.508333,16.5351628 C103.031111,16.5351628 102.622778,16.4302326 102.284167,16.2206512 C101.944444,16.0107907 101.666667,15.7373023 101.45,15.3993488 C101.233056,15.0613953 101.075,14.680186 100.974444,14.2554419 C100.873889,13.8304186 100.823889,13.399814 100.823889,12.964186 C100.823889,12.3647442 100.913333,11.8049302 101.092222,11.2847442 C101.271111,10.7648372 101.5275,10.3124651 101.860556,9.92846512 C102.194722,9.54446512 102.602222,9.24195349 103.085,9.0212093 C103.5675,8.80074419 104.109722,8.69051163 104.711944,8.69051163 C105.226944,8.69051163 105.709722,8.77088372 106.159167,8.93134884 C106.609444,9.09209302 107.031389,9.30753488 107.424722,9.57711628 C107.817222,9.8464186 108.183611,10.155907 108.522222,10.5044651 C108.860833,10.8530233 109.1775,11.2127442 109.470278,11.5833488 L109.315278,12.7353488 C109.168611,12.5391628 108.970833,12.3265116 108.721667,12.0979535 C108.472222,11.8691163 108.208056,11.6455814 107.928611,11.427907 C107.649444,11.2099535 107.373889,11.0045581 107.103333,10.8108837 C106.831944,10.6177674 106.598333,10.4556279 106.403889,10.3247442 L106.338889,10.4146047 L106.338889,10.4146047 Z" id="Fill-42" fill="#515251"></path>
                        <path d="M111.828333,15.0069767 C111.828333,14.9363721 111.833889,14.8353488 111.845,14.7044651 C111.856111,14.5738605 111.871944,14.4242791 111.894167,14.2554419 C111.915556,14.0863256 111.94,13.908 111.966944,13.719907 C111.993889,13.531814 112.021667,13.3453953 112.048333,13.160093 C112.107778,12.7244651 112.181389,12.255907 112.267778,11.7546977 L112.145833,11.7546977 C112.080833,11.8364651 112.006389,11.9589767 111.9225,12.1222326 C111.838056,12.2860465 111.72,12.5257674 111.568889,12.8413953 C111.416944,13.1573023 111.223056,13.5675349 110.987222,14.0712558 C110.751389,14.5752558 110.445833,15.2056744 110.071667,15.9630698 C109.963333,16.1863256 109.8375,16.3375814 109.693333,16.4165581 C109.550278,16.495814 109.391111,16.5351628 109.217778,16.5351628 C108.995556,16.5351628 108.816667,16.4874419 108.681389,16.392 C108.545278,16.2968372 108.440833,16.1684651 108.367778,16.008 C108.294444,15.8472558 108.246111,15.6650233 108.221389,15.4604651 C108.196944,15.256186 108.185,15.0452093 108.185,14.8272558 C108.185,14.604 108.198611,14.3397209 108.225556,14.0346977 C108.2525,13.7293953 108.288056,13.408186 108.331389,13.0702326 C108.374167,12.7325581 108.425,12.387907 108.481944,12.0368372 C108.538889,11.6854884 108.598056,11.3492093 108.660833,11.0274419 C108.723333,10.7059535 108.786667,10.411814 108.852222,10.1450233 C108.917222,9.87795349 108.976389,9.66 109.031111,9.49116279 C109.085,9.31702326 109.136389,9.17776744 109.185278,9.07451163 C109.234444,8.97125581 109.289722,8.89060465 109.352222,8.83339535 C109.414167,8.77590698 109.489167,8.73823256 109.575556,8.71925581 C109.6625,8.7 109.773333,8.69051163 109.909444,8.69051163 C110.115278,8.69051163 110.276667,8.6972093 110.393056,8.71088372 C110.51,8.72427907 110.596389,8.7572093 110.653333,8.80911628 C110.710278,8.86074419 110.744444,8.93553488 110.755278,9.03348837 C110.765556,9.13172093 110.771111,9.26539535 110.771111,9.43395349 C110.771111,9.52660465 110.767222,9.63293023 110.759444,9.75265116 C110.751389,9.87265116 110.738889,10.0007442 110.723056,10.1366512 C110.706389,10.2731163 110.688889,10.4134884 110.67,10.5577674 C110.650833,10.7020465 110.630278,10.8424186 110.608889,10.9783256 C110.56,11.299814 110.508611,11.632186 110.453889,11.9751628 L110.543333,12.0733953 C110.554444,12.0572093 110.613056,11.9536744 110.718333,11.7627907 C110.824167,11.572186 110.953889,11.3436279 111.109167,11.0765581 C111.263333,10.8097674 111.430278,10.5301395 111.609167,10.2387907 C111.788056,9.94744186 111.958889,9.6904186 112.121389,9.46660465 C112.278611,9.24362791 112.445833,9.05832558 112.622222,8.91125581 C112.797778,8.76418605 113.008333,8.69051163 113.251944,8.69051163 C113.48,8.69051163 113.675556,8.7572093 113.837778,8.89060465 C114.000556,9.024 114.082222,9.2132093 114.082222,9.45851163 C114.082222,9.67088372 114.068056,9.87265116 114.041111,10.0632558 C114.014167,10.2538605 113.98,10.4391628 113.939722,10.6188837 C113.898611,10.7986047 113.856667,10.9741395 113.813056,11.1460465 C113.769722,11.3176744 113.729167,11.4934884 113.691389,11.6732093 C113.664444,11.7982326 113.647778,11.8774884 113.642222,11.9101395 C113.6375,11.9425116 113.634167,11.9645581 113.634167,11.9751628 L113.723611,12.0733953 C113.734722,12.0572093 113.797222,11.9547907 113.911389,11.7669767 C114.025278,11.5788837 114.164444,11.3514419 114.33,11.0846512 C114.495278,10.8175814 114.671667,10.5371163 114.858611,10.2429767 C115.046111,9.94855814 115.220278,9.6904186 115.383056,9.46660465 C115.540556,9.24865116 115.697222,9.06502326 115.854722,8.91516279 C116.012222,8.76530233 116.204722,8.69051163 116.4325,8.69051163 C116.687222,8.69051163 116.9025,8.7572093 117.078889,8.89060465 C117.255556,9.024 117.343333,9.2132093 117.343333,9.45851163 C117.343333,9.83469767 117.324444,10.1910698 117.286389,10.5290233 C117.248333,10.8669767 117.204722,11.1987907 117.156667,11.5261395 C117.1075,11.8526512 117.063889,12.183907 117.026111,12.5185116 C116.988056,12.8536744 116.969167,13.2092093 116.969167,13.5851163 C116.969167,13.8792558 117.006944,14.1189767 117.083056,14.3042791 C117.158889,14.4895814 117.251667,14.5819535 117.36,14.5819535 C117.473889,14.5819535 117.5925,14.5573953 117.717778,14.5085581 C117.841944,14.4597209 117.97,14.3969302 118.099722,14.3204651 C118.229722,14.2442791 118.356944,14.156093 118.481944,14.0550698 C118.607222,13.9543256 118.725833,13.8493953 118.839722,13.7405581 C119.105556,13.4896744 119.368333,13.2066977 119.628611,12.8907907 L119.767222,14.8188837 C119.528333,15.0097674 119.291667,15.2073488 119.055833,15.4113488 C118.82,15.6156279 118.57,15.8009302 118.307222,15.9669767 C118.044444,16.1335814 117.755556,16.2694884 117.440556,16.3755349 C117.126389,16.4818605 116.771111,16.5351628 116.375556,16.5351628 C116.18,16.5351628 116.016389,16.4709767 115.883333,16.3431628 C115.750278,16.2150698 115.643611,16.0364651 115.561944,15.8076279 C115.480556,15.5790698 115.422778,15.3092093 115.387222,14.9986047 C115.352222,14.6882791 115.334167,14.3506047 115.334167,13.9853023 C115.334167,13.6423256 115.346667,13.2786977 115.371389,12.8946977 C115.395,12.5106977 115.429167,12.1222326 115.4725,11.7304186 L115.350833,11.7304186 L113.699167,15.9546977 C113.558333,16.1835349 113.401667,16.3375814 113.2275,16.4165581 C113.054167,16.495814 112.853333,16.5351628 112.626111,16.5351628 C112.451944,16.5351628 112.314444,16.4874419 112.211389,16.392 C112.107778,16.2968372 112.027778,16.1740465 111.970833,16.024186 C111.913889,15.8743256 111.875833,15.7099535 111.856944,15.5302326 C111.838056,15.3499535 111.828333,15.176093 111.828333,15.0069767" id="Fill-43" fill="#515251"></path>
                        <path d="M11.7733333,13.8293023 C11.7733333,13.9649302 11.7827778,14.096093 11.8016667,14.223907 C11.8202778,14.3508837 11.8541667,14.4644651 11.9027778,14.5649302 C11.9511111,14.6648372 12.0158333,14.7460465 12.0966667,14.8085581 C12.1777778,14.8710698 12.28,14.9014884 12.4038889,14.9014884 C12.6033333,14.9014884 12.7838889,14.8152558 12.9458333,14.6416744 C13.1075,14.4683721 13.2475,14.260186 13.3661111,14.0165581 C13.4847222,13.7726512 13.5802778,13.5212093 13.6533333,13.2611163 C13.7261111,13.0010233 13.7730556,12.784186 13.7947222,12.6111628 L14.2880556,10.2231628 C14.0669444,10.2231628 13.8513889,10.2786977 13.6411111,10.3894884 C13.4308333,10.5005581 13.2327778,10.6504186 13.0466667,10.840186 C12.8608333,11.0296744 12.6897222,11.2465116 12.5333333,11.4901395 C12.3769444,11.7334884 12.2425,11.9896744 12.1291667,12.2575814 C12.0158333,12.5260465 11.9283333,12.7950698 11.8663889,13.0657674 C11.8041667,13.3364651 11.7733333,13.5915349 11.7733333,13.8293023 L11.7733333,13.8293023 Z M18.6786111,14.4714419 C18.5544444,14.6444651 18.3886111,14.8476279 18.1811111,15.0803721 C17.9736111,15.3136744 17.7405556,15.5355349 17.4819444,15.7467907 C17.2230556,15.9580465 16.9452778,16.1369302 16.6488889,16.2826047 C16.3522222,16.4291163 16.0561111,16.5022326 15.7597222,16.5022326 C15.4036111,16.5022326 15.1072222,16.3872558 14.87,16.1567442 C14.6327778,15.9267907 14.4280556,15.5924651 14.2555556,15.1537674 C14.1261111,15.3053023 13.9672222,15.4596279 13.7786111,15.6167442 C13.5897222,15.7741395 13.3836111,15.915907 13.16,16.0431628 C12.9363889,16.1704186 12.7030556,16.2747907 12.4605556,16.356 C12.2180556,16.4372093 11.9752778,16.4779535 11.7330556,16.4779535 C11.4741667,16.4779535 11.2219444,16.4252093 10.9766667,16.3194419 C10.7313889,16.2139535 10.5144444,16.0624186 10.3261111,15.8642791 C10.1372222,15.6666977 9.98638889,15.4255814 9.87333333,15.1417674 C9.76,14.8573953 9.70361111,14.535907 9.70361111,14.1789767 C9.70361111,13.7726512 9.76,13.356 9.87333333,12.927907 C9.98638889,12.499814 10.1427778,12.0814884 10.3422222,11.6729302 C10.5413889,11.264093 10.7772222,10.8781395 11.0497222,10.5153488 C11.3216667,10.1525581 11.6197222,9.83581395 11.9433333,9.56511628 C12.2663889,9.2944186 12.6075,9.07869767 12.9658333,8.91906977 C13.3244444,8.75972093 13.6897222,8.67962791 14.0613889,8.67962791 C14.1855556,8.67962791 14.2825,8.70390698 14.3527778,8.75218605 C14.4225,8.80102326 14.4808333,8.85683721 14.5263889,8.91906977 C14.5722222,8.9815814 14.6166667,9.0424186 14.6597222,9.10186047 C14.7030556,9.1615814 14.7569444,9.20455814 14.8216667,9.23190698 C14.8863889,9.25925581 14.9522222,9.27683721 15.0197222,9.28465116 C15.0869444,9.29274419 15.1555556,9.29665116 15.2261111,9.29665116 C15.285,9.29665116 15.3458333,9.29553488 15.4080556,9.29274419 C15.4697222,9.28995349 15.5302778,9.28855814 15.59,9.28855814 C15.6705556,9.28855814 15.7461111,9.29665116 15.8161111,9.31311628 C15.8861111,9.3295814 15.9480556,9.36474419 16.0019444,9.41860465 C16.0561111,9.47274419 16.0977778,9.54865116 16.1275,9.64632558 C16.1569444,9.74344186 16.1719444,9.87627907 16.1719444,10.0442791 C16.1719444,10.304093 16.145,10.5926512 16.0911111,10.9093953 C16.0369444,11.2261395 15.9777778,11.5506977 15.9130556,11.883907 C15.8483333,12.2171163 15.7888889,12.5503256 15.7352778,12.8829767 C15.6813889,13.216186 15.6544444,13.531814 15.6544444,13.8293023 C15.6544444,14.084093 15.6772222,14.2833488 15.7233333,14.4265116 C15.7688889,14.5699535 15.8672222,14.6416744 16.0180556,14.6416744 C16.1313889,14.6416744 16.25,14.6132093 16.3741667,14.5565581 C16.4977778,14.4996279 16.6233333,14.4253953 16.75,14.3333023 C16.8766667,14.2414884 17.0033333,14.1368372 17.13,14.0207442 C17.2566667,13.9043721 17.3766667,13.783814 17.4897222,13.6590698 C17.7538889,13.3666047 18.0208333,13.036186 18.2902778,12.667814 L18.6786111,14.4714419 L18.6786111,14.4714419 Z" id="Fill-44" fill="#515251"></path>
                        <path d="M25.0822222,4.4307907 C25.1147222,4.05209302 25.1308333,3.75125581 25.1308333,3.52939535 C25.1308333,3.23693023 25.105,3.03376744 25.0538889,2.92018605 C25.0027778,2.80604651 24.9286111,2.74939535 24.8316667,2.74939535 C24.6588889,2.74939535 24.5027778,2.85906977 24.3627778,3.07869767 C24.2225,3.29776744 24.0986111,3.57823256 23.9905556,3.91925581 C23.8830556,4.26055814 23.7886111,4.63674419 23.7077778,5.04837209 C23.6269444,5.46 23.5594444,5.85795349 23.5055556,6.2427907 C23.4516667,6.62706977 23.4086111,6.97395349 23.3761111,7.28204651 C23.3438889,7.59097674 23.3222222,7.81004651 23.3113889,7.94009302 C23.29,8.20548837 23.2725,8.46167442 23.2588889,8.70809302 C23.2452778,8.95423256 23.2361111,9.17916279 23.2305556,9.38232558 C23.2252778,9.58493023 23.2227778,9.76269767 23.2227778,9.91423256 L23.2227778,10.2633488 L23.2227778,10.3445581 C23.5297222,9.64074419 23.8127778,8.93972093 24.0716667,8.24093023 C24.1794444,7.94288372 24.2886111,7.63004651 24.3991667,7.3024186 C24.5094444,6.97506977 24.6105556,6.64576744 24.7022222,6.31534884 C24.7938889,5.98548837 24.8733333,5.66037209 24.9405556,5.34055814 C25.0083333,5.02102326 25.0552778,4.71795349 25.0822222,4.4307907 L25.0822222,4.4307907 Z M21.2822222,10.32 C20.9261111,10.4938605 20.6094444,10.7226977 20.3322222,11.0070698 C20.0544444,11.2908837 19.8227778,11.5984186 19.6363889,11.9288372 C19.4505556,12.2592558 19.3091667,12.5924651 19.2122222,12.927907 C19.115,13.263907 19.0663889,13.5669767 19.0663889,13.8379535 C19.0663889,13.9462326 19.0786111,14.0542326 19.1027778,14.1625116 C19.1272222,14.2710698 19.1719444,14.3684651 19.2363889,14.4549767 C19.3008333,14.5417674 19.3927778,14.612093 19.5113889,14.6659535 C19.6297222,14.7206512 19.7833333,14.7477209 19.9722222,14.7477209 C20.0691667,14.7477209 20.1647222,14.7234419 20.2591667,14.6746047 C20.3536111,14.6257674 20.4436111,14.5621395 20.53,14.4831628 C20.6163889,14.4050233 20.6986111,14.3157209 20.7766667,14.2152558 C20.8547222,14.1153488 20.9261111,14.0109767 20.9908333,13.9024186 C21.1416667,13.6537674 21.2794444,13.371907 21.4033333,13.0579535 C21.3872222,12.9817674 21.3736111,12.8614884 21.3630556,12.6962791 C21.3519444,12.5310698 21.3441667,12.3471628 21.3386111,12.144 C21.3333333,11.9408372 21.3275,11.7312558 21.3225,11.5144186 C21.3169444,11.2981395 21.3130556,11.1 21.3105556,10.9211163 C21.3075,10.7430698 21.3036111,10.5965581 21.2983333,10.4829767 C21.2927778,10.3688372 21.2872222,10.3149767 21.2822222,10.32 L21.2822222,10.32 Z M26.845,14.8691163 C26.4622222,15.1671628 26.0847222,15.4328372 25.7130556,15.6655814 C25.5566667,15.7626977 25.3922222,15.8592558 25.2197222,15.9541395 C25.0472222,16.0487442 24.8775,16.132186 24.7105556,16.2055814 C24.5430556,16.2786977 24.3802778,16.3384186 24.2211111,16.384186 C24.0619444,16.4302326 23.915,16.4536744 23.7802778,16.4536744 C23.705,16.4536744 23.5930556,16.4372093 23.445,16.4048372 C23.2966667,16.3724651 23.135,16.3060465 22.9597222,16.2055814 C22.7844444,16.1056744 22.6094444,15.9608372 22.4341667,15.7713488 C22.2591667,15.5815814 22.1069444,15.3295814 21.9775,15.0156279 C21.7780556,15.2104186 21.5663889,15.396 21.3425,15.572093 C21.1188889,15.747907 20.8872222,15.9011163 20.6475,16.0311628 C20.4075,16.1612093 20.1647222,16.2650233 19.9197222,16.344 C19.6741667,16.4224186 19.4277778,16.4614884 19.1797222,16.4614884 C18.8294444,16.4614884 18.5258333,16.3858605 18.27,16.2337674 C18.0141667,16.0822326 17.8011111,15.8807442 17.6313889,15.6287442 C17.4613889,15.3773023 17.335,15.0912558 17.2513889,14.7717209 C17.1677778,14.4524651 17.1261111,14.1223256 17.1261111,13.7810233 C17.1261111,13.4341395 17.1705556,13.0833488 17.2594444,12.7286512 C17.3483333,12.3745116 17.4777778,12.0304186 17.6477778,11.6972093 C17.8175,11.364 18.0233333,11.0500465 18.2661111,10.7547907 C18.5088889,10.459814 18.7836111,10.1969302 19.0908333,9.96697674 C19.3980556,9.73702326 19.7322222,9.54586047 20.0933333,9.39432558 C20.4544444,9.2427907 20.84,9.14790698 21.2497222,9.10995349 C21.2658333,8.41674419 21.3275,7.73162791 21.4355556,7.05488372 C21.5436111,6.37786047 21.6863889,5.73348837 21.8641667,5.12148837 C22.0422222,4.50976744 22.2508333,3.94381395 22.4908333,3.42362791 C22.7305556,2.90372093 22.9933333,2.45413953 23.2791667,2.07488372 C23.5647222,1.69646512 23.8694444,1.39953488 24.1927778,1.18548837 C24.5163889,0.972 24.8505556,0.864837209 25.1955556,0.864837209 C25.4488889,0.864837209 25.6644444,0.931255814 25.8425,1.06409302 C26.0202778,1.19693023 26.1644444,1.37274419 26.275,1.59181395 C26.3855556,1.81116279 26.4647222,2.06595349 26.5133333,2.35534884 C26.5619444,2.6455814 26.5863889,2.94474419 26.5863889,3.25283721 C26.5863889,3.44260465 26.5780556,3.63767442 26.5619444,3.83804651 C26.4919444,4.6015814 26.3625,5.32297674 26.1738889,6.00251163 C25.985,6.68260465 25.7641667,7.34455814 25.5108333,7.98865116 C25.2572222,8.6335814 24.9825,9.27209302 24.6861111,9.9064186 C24.3894444,10.539907 24.1011111,11.1976744 23.8208333,11.88 C23.7938889,11.956186 23.7669444,12.048 23.74,12.1565581 C23.7130556,12.2642791 23.6875,12.3823256 23.6630556,12.5095814 C23.6388889,12.6365581 23.6188889,12.7666047 23.6027778,12.8994419 C23.5863889,13.0322791 23.5783333,13.1606512 23.5783333,13.2853953 C23.5783333,13.4422326 23.5877778,13.5915349 23.6066667,13.732186 C23.6255556,13.8731163 23.6563889,13.9989767 23.6994444,14.1097674 C23.7427778,14.2211163 23.8008333,14.3090233 23.8733333,14.3737674 C23.9461111,14.4390698 24.0363889,14.4714419 24.1441667,14.4714419 C24.2466667,14.4714419 24.3586111,14.4507907 24.48,14.4106047 C24.6011111,14.3695814 24.7291667,14.3140465 24.8638889,14.2437209 C24.9986111,14.1733953 25.1347222,14.0938605 25.2722222,14.0042791 C25.4097222,13.9149767 25.5433333,13.8242791 25.6727778,13.732186 C25.9688889,13.5153488 26.2788889,13.2689302 26.6025,12.9926512 L26.845,14.8691163 L26.845,14.8691163 Z" id="Fill-45" fill="#515251"></path>
                        <path d="M26.7477778,22.44 C26.9741667,22.44 27.1886111,22.3735814 27.3905556,22.2413023 C27.5927778,22.1084651 27.7788889,21.9334884 27.9486111,21.7174884 C28.1183333,21.5003721 28.2730556,21.2542326 28.4136111,20.9782326 C28.5536111,20.7019535 28.6775,20.4186977 28.7852778,20.1290233 C28.8933333,19.8396279 28.9847222,19.5563721 29.0602778,19.2803721 C29.1355556,19.004093 29.195,18.7576744 29.2383333,18.5408372 C29.0280556,18.6814884 28.8136111,18.8494884 28.5955556,19.0448372 C28.3772222,19.2396279 28.1641667,19.4494884 27.9566667,19.6744186 C27.7491667,19.8990698 27.5525,20.1301395 27.3663889,20.3687442 C27.1802778,20.6070698 27.0175,20.835907 26.8772222,21.0549767 C26.7369444,21.2746047 26.6263889,21.4788837 26.5455556,21.6686512 C26.4647222,21.8581395 26.4244444,22.0146977 26.4244444,22.1397209 C26.4244444,22.340093 26.5319444,22.44 26.7477778,22.44 L26.7477778,22.44 Z M30.5319444,10.2231628 C30.575,10.0384186 30.6519444,9.87516279 30.7622222,9.73144186 C30.8727778,9.58772093 30.9994444,9.46744186 31.1422222,9.36976744 C31.285,9.27209302 31.4347222,9.19953488 31.5911111,9.15069767 C31.7475,9.10186047 31.8955556,9.0775814 32.0358333,9.0775814 C32.2027778,9.0775814 32.3430556,9.11386047 32.4563889,9.18697674 C32.5694444,9.26037209 32.6261111,9.37562791 32.6261111,9.53218605 C32.6261111,9.58102326 32.6177778,9.63767442 32.6016667,9.70297674 C32.5694444,9.84390698 32.5291667,10.036186 32.4805556,10.279814 C32.4319444,10.5234419 32.3794444,10.7997209 32.3230556,11.108093 C32.2661111,11.4167442 32.2083333,11.7432558 32.1488889,12.0870698 C32.0894444,12.4311628 32.0330556,12.7735814 31.9791667,13.1146047 C31.8444444,13.916093 31.7069444,14.7773023 31.5669444,15.6979535 C31.7286111,15.6061395 31.9036111,15.492 32.0925,15.3569302 C32.2811111,15.2213023 32.4913889,15.040186 32.7230556,14.8124651 C32.955,14.5847442 33.2133333,14.2992558 33.4994444,13.9554419 C33.785,13.611907 34.1058333,13.1826977 34.4616667,12.667814 L34.8497222,14.4714419 C34.7525,14.6394419 34.6275,14.8113488 34.4736111,14.9874419 C34.32,15.1632558 34.1502778,15.3393488 33.9644444,15.5151628 C33.7780556,15.6912558 33.5844444,15.8614884 33.3819444,16.0266977 C33.1797222,16.1924651 32.9816667,16.347907 32.7877778,16.4938605 C32.3294444,16.8407442 31.8363889,17.176186 31.3080556,17.5013023 C31.2055556,18.0803721 31.0844444,18.6452093 30.9441667,19.1946977 C30.8038889,19.7447442 30.6383333,20.2590698 30.4469444,20.7382326 C30.2555556,21.2179535 30.0372222,21.6577674 29.7919444,22.0585116 C29.5466667,22.4592558 29.2688889,22.8027907 28.9594444,23.0899535 C28.6491667,23.3771163 28.3027778,23.6003721 27.9202778,23.7602791 C27.5375,23.919907 27.1144444,24 26.6505556,24 C26.4672222,24 26.2694444,23.9804651 26.0566667,23.9430698 C25.8436111,23.9051163 25.6466667,23.8289302 25.4661111,23.7153488 C25.2855556,23.6020465 25.1361111,23.4396279 25.0175,23.2283721 C24.8988889,23.0165581 24.8394444,22.7352558 24.8394444,22.3830698 C24.8394444,22.1397209 24.9016667,21.8648372 25.0255556,21.5589767 C25.1497222,21.2531163 25.3194444,20.9305116 25.535,20.5922791 C25.7505556,20.2534884 26.0066667,19.9015814 26.3033333,19.536 C26.5994444,19.1704186 26.9216667,18.8065116 27.2694444,18.4437209 C27.6169444,18.0803721 27.9808333,17.7234419 28.3611111,17.3715349 C28.7411111,17.0187907 29.125,16.6833488 29.5130556,16.363814 L29.7313889,15.6083721 C29.4402778,15.868186 29.1369444,16.0783256 28.8216667,16.2379535 C28.5063889,16.3978605 28.2005556,16.4779535 27.9041667,16.4779535 C27.6452778,16.4779535 27.3930556,16.4252093 27.1480556,16.3194419 C26.9027778,16.2139535 26.6858333,16.0624186 26.4972222,15.8642791 C26.3083333,15.6666977 26.1575,15.4255814 26.0444444,15.1417674 C25.9311111,14.8573953 25.8747222,14.535907 25.8747222,14.1789767 C25.8747222,13.707907 25.8975,13.2747907 25.9433333,12.8790698 C25.9891667,12.483907 26.0552778,12.1077209 26.1413889,11.7499535 C26.2275,11.3924651 26.3355556,11.0472558 26.4647222,10.7140465 C26.5941667,10.3813953 26.7425,10.0442791 26.9094444,9.70297674 C27.0336111,9.45906977 27.2113889,9.27404651 27.4430556,9.1467907 C27.6747222,9.01897674 27.9013889,8.95534884 28.1222222,8.95534884 C28.3111111,8.95534884 28.4725,9.00306977 28.6077778,9.09795349 C28.7422222,9.19283721 28.8097222,9.34046512 28.8097222,9.54083721 C28.8097222,9.60027907 28.8027778,9.66502326 28.7891667,9.73534884 C28.7761111,9.80595349 28.7530556,9.88186047 28.7205556,9.96306977 C28.6236111,10.2122791 28.5280556,10.5058605 28.4336111,10.844093 C28.3391667,11.1828837 28.2558333,11.5292093 28.1830556,11.883907 C28.1102778,12.2388837 28.0522222,12.5866047 28.0091667,12.927907 C27.9661111,13.2689302 27.9447222,13.5697674 27.9447222,13.8293023 C27.9447222,13.9649302 27.9538889,14.096093 27.9727778,14.223907 C27.9913889,14.3508837 28.0252778,14.4644651 28.0738889,14.5649302 C28.1222222,14.6648372 28.1869444,14.7460465 28.2677778,14.8085581 C28.3488889,14.8710698 28.4511111,14.9014884 28.5752778,14.9014884 C28.7747222,14.9014884 28.955,14.8152558 29.1169444,14.6416744 C29.2786111,14.4683721 29.4186111,14.260186 29.5375,14.0165581 C29.6558333,13.7726512 29.7513889,13.5212093 29.8244444,13.2611163 C29.8972222,13.0010233 29.9441667,12.784186 29.9658333,12.6111628 L30.5319444,10.2231628 L30.5319444,10.2231628 Z" id="Fill-46" fill="#515251"></path>
                        <g id="Group-50" fill="#515251">
                            <path d="M38.4386111,14.3821395 C38.5033333,14.3821395 38.575,14.4226047 38.6527778,14.5035349 C38.7311111,14.5847442 38.8213889,14.6746047 38.9238889,14.7717209 C39.0263889,14.8691163 39.1447222,14.9589767 39.2797222,15.040186 C39.4141667,15.1213953 39.5677778,15.1615814 39.7405556,15.1615814 C39.9508333,15.1615814 40.1244444,15.1264186 40.2619444,15.056093 C40.3997222,14.9854884 40.5086111,14.8925581 40.5894444,14.776186 C40.6702778,14.659814 40.7269444,14.524186 40.7591667,14.3695814 C40.7916667,14.2152558 40.8077778,14.0542326 40.8077778,13.8865116 C40.8077778,13.7402791 40.7983333,13.5915349 40.7797222,13.44 C40.7605556,13.2884651 40.7363889,13.1430698 40.7066667,13.0052093 C40.6769444,12.8670698 40.6447222,12.7370233 40.6097222,12.6150698 C40.5744444,12.4931163 40.5436111,12.3893023 40.5169444,12.3022326 L38.4386111,14.3821395 L38.4386111,14.3821395 Z M37.4038889,13.3423256 C37.7055556,13.0822326 37.9508333,12.8653953 38.1394444,12.6923721 C38.3283333,12.5190698 38.4897222,12.3608372 38.6247222,12.2171163 C38.7594444,12.0736744 38.8819444,11.9288372 38.9927778,11.7823256 C39.1027778,11.6363721 39.2336111,11.4627907 39.3847222,11.2624186 C39.5358333,11.0626047 39.7188889,10.8173023 39.9347222,10.5273488 C40.1502778,10.2376744 40.4302778,9.87627907 40.7752778,9.44316279 C40.8455556,9.34548837 40.9236111,9.25060465 41.0097222,9.1587907 C41.0961111,9.06669767 41.1916667,8.98381395 41.2969444,8.91125581 C41.4022222,8.83786047 41.5180556,8.7784186 41.6447222,8.73237209 C41.7711111,8.68632558 41.9127778,8.66316279 42.0691667,8.66316279 C42.3280556,8.66316279 42.5272222,8.69162791 42.6675,8.74827907 C42.8077778,8.80548837 42.91,8.8744186 42.9747222,8.95534884 C43.0394444,9.03655814 43.0769444,9.12223256 43.0880556,9.21153488 C43.0986111,9.30055814 43.1041667,9.37786047 43.1041667,9.44316279 C43.1041667,9.5732093 43.0530556,9.71665116 42.9502778,9.87348837 C42.8480556,10.0306047 42.7347222,10.1821395 42.6108333,10.3286512 C42.4866667,10.4746047 42.3694444,10.6085581 42.2591667,10.7305116 C42.1486111,10.8524651 42.0852778,10.9434419 42.0691667,11.0023256 C42.0691667,11.1703256 42.0813889,11.323814 42.1058333,11.4616744 C42.1297222,11.5995349 42.1622222,11.7351628 42.2025,11.868 C42.2430556,12.0002791 42.2847222,12.1412093 42.3280556,12.2905116 C42.3711111,12.4392558 42.4127778,12.6111628 42.4530556,12.8059535 C42.4936111,13.0010233 42.5261111,13.2259535 42.5502778,13.480186 C42.5747222,13.7349767 42.5866667,14.0352558 42.5866667,14.3821395 C42.7805556,14.252093 42.9897222,14.1340465 43.2133333,14.0285581 C43.4369444,13.9230698 43.6702778,13.8133953 43.9125,13.6992558 C44.1552778,13.5856744 44.4044444,13.459814 44.6608333,13.3219535 C44.9166667,13.183814 45.1741667,13.0169302 45.4327778,12.8224186 L45.4411111,14.6416744 C45.1063889,14.9014884 44.7197222,15.1456744 44.2805556,15.3728372 C43.8411111,15.6002791 43.3802778,15.8006512 42.8977778,15.9739535 C42.4152778,16.1475349 41.9277778,16.2842791 41.4344444,16.384186 C40.9411111,16.484093 40.4736111,16.5346047 40.0313889,16.5346047 C39.7133333,16.5346047 39.4169444,16.5047442 39.1422222,16.4450233 C38.8672222,16.3858605 38.6261111,16.2923721 38.4183333,16.1651163 C38.2111111,16.0381395 38.0427778,15.8712558 37.9133333,15.6655814 C37.7838889,15.4596279 37.7055556,15.2104186 37.6788889,14.9179535 C37.6030556,14.9344186 37.5291667,14.9453023 37.4563889,14.9503256 C37.3836111,14.956186 37.3119444,14.9589767 37.2419444,14.9589767 C37.1558333,14.9589767 37.075,14.956186 36.9997222,14.9503256 C36.9238889,14.9453023 36.8591667,14.9249302 36.8055556,14.8897674 C36.7516667,14.8546047 36.7083333,14.7976744 36.6761111,14.7186977 C36.6436111,14.6405581 36.6275,14.528093 36.6275,14.3821395 C36.6275,14.252093 36.6597222,14.1312558 36.7244444,14.0207442 C36.7891667,13.9093953 36.8644444,13.8106047 36.9511111,13.723814 C37.0372222,13.6375814 37.1233333,13.5613953 37.2097222,13.4966512 C37.2958333,13.4313488 37.3605556,13.3802791 37.4038889,13.3423256 L37.4038889,13.3423256 Z" id="Fill-47"></path>
                            <path d="M9.23972222,1.52372093 C9.2025,1.524 9.1725,1.53516279 9.1375,1.55469767 C8.80222222,1.74669767 8.35638889,2.57246512 8.11194444,3.98483721 C8.23527778,3.92651163 8.35388889,3.86427907 8.46833333,3.79925581 C9.37611111,3.28074419 9.72055556,2.48065116 9.65722222,1.956 C9.63916667,1.80334884 9.57972222,1.61162791 9.39972222,1.56111628 C9.32805556,1.53488372 9.27944444,1.52316279 9.23972222,1.52372093 L9.23972222,1.52372093 Z M3.10972222,12.648 C2.58361111,12.6541395 2.14194444,12.8190698 1.87555556,13.0945116 C1.48083333,13.5025116 1.47555556,14.2674419 1.86527778,14.7002791 C2.26944444,15.1465116 3.04388889,15.0993488 3.5825,14.7750698 C4.01416667,14.5152558 4.33972222,14.1756279 4.55416667,13.7737674 C4.64833333,13.5965581 4.73722222,13.4168372 4.82,13.2357209 C4.18722222,12.8737674 3.57,12.6033488 3.14527778,12.6474419 C3.13388889,12.6477209 3.12194444,12.6477209 3.10972222,12.648 L3.10972222,12.648 Z M2.97222222,4.9467907 C3.25055556,4.7704186 4.31027778,5.03944186 6.61277778,4.50474419 C6.65611111,4.24967442 6.70305556,3.99460465 6.75416667,3.74204651 C6.96083333,2.5292093 7.11222222,0.931255814 8.22305556,0.336 C8.80166667,0.0259534884 9.365,0.0666976744 9.83333333,0.246697674 C10.4647222,0.423348837 11.0352778,0.993488372 11.1294444,1.77488372 C11.2502778,2.77395349 10.9397222,4.07888372 9.47666667,4.91386047 C9.06888889,5.14604651 8.29777778,5.42734884 7.83944444,5.5855814 C7.76138889,6.11609302 7.69277778,6.64744186 7.62555556,7.1695814 C7.3875,9.00697674 7.14305556,10.891814 6.52777778,12.6756279 C7.01833333,13.0124651 8.71666667,13.9741395 8.85722222,14.0631628 C9.64944444,14.5596279 10.4922222,14.5858605 11.3280556,14.3547907 C12.0272222,14.1613953 12.1827778,15.7462326 12.1827778,15.7462326 C11.8525,15.8712558 12.5194444,16.3872558 11.9783333,16.4486512 C10.7263889,16.5909767 9.32444444,16.3169302 7.93222222,15.4144186 C7.77194444,15.3103256 6.44694444,14.307907 5.99194444,13.9897674 C5.78361111,14.5395349 5.425,15.5980465 4.46111111,16.1545116 C4.03583333,16.399814 3.41111111,16.4963721 2.92805556,16.5022326 C2.14722222,16.5114419 1.36527778,16.2092093 0.843333333,15.6315349 C-0.0319444444,14.6617674 -0.367777778,12.8363721 0.530277778,11.907907 C1.06638889,11.352 1.76833333,10.8100465 3.13611111,10.996186 C3.94916667,11.0662326 4.52055556,11.4859535 5.32361111,11.9260465 C5.81777778,10.3780465 6.03305556,8.7184186 6.25666667,6.99069767 C6.3,6.65581395 6.34388889,6.31813953 6.39055556,5.97767442 C5.41055556,6.18418605 3.31388889,6.62148837 3.21694444,6.51460465 C2.77222222,6.29246512 2.69388889,5.12344186 2.97222222,4.9467907 L2.97222222,4.9467907 Z" id="Fill-49"></path>
                        </g>
                        <path d="M37.0288889,1.55804651 C36.6194444,0.930697674 35.0097222,0.577116279 34.3313889,1.17181395 C33.5169444,1.88623256 33.5594444,3.23693023 34.2580556,4.30772093 C34.8080556,5.15051163 35.1480556,6.17218605 35.4991667,7.27423256 C36.725,6.83218605 40.1894444,5.40418605 40.1302778,2.69190698 C40.045,1.77125581 39.5469444,1.24911628 38.9419444,1.11739535 C38.3366667,0.985395349 37.4608333,1.10344186 37.0288889,1.55804651" id="Fill-51" fill="#DB385E"></path>
                    </g>
                </g>
            </g>
        </g>
    </g>
</svg>