<?xml version="1.0" encoding="UTF-8" standalone="no"?>
<svg width="33px" height="33px" viewBox="0 0 33 33" version="1.1" xmlns="http://www.w3.org/2000/svg" xmlns:xlink="http://www.w3.org/1999/xlink">
    <!-- Generator: Sketch 42 (36781) - http://www.bohemiancoding.com/sketch -->
    <title>image_thumbsUp</title>
    <desc>Created with Sketch.</desc>
    <defs></defs>
    <g id="Page-1" stroke="none" stroke-width="1" fill="none" fill-rule="evenodd">
        <g id="Artboard" transform="translate(-287.000000, -271.000000)" fill-rule="nonzero" fill="#DD325D">
            <g id="image_thumbsUp" transform="translate(287.000000, 271.000000)">
                <g id="Group">
                    <path d="M3.09375,33 L19.59375,33 L23.71875,33 L25.78125,33 C27.4725,33 28.875,31.5975 28.875,29.90625 C28.875,29.49375 28.7925,29.1225 28.66875,28.75125 C29.98875,28.38 30.9375,27.18375 30.9375,25.78125 C30.9375,25.36875 30.855,24.9975 30.73125,24.62625 C32.05125,24.255 33,23.05875 33,21.65625 C33,20.8725 32.71125,20.13 32.21625,19.59375 C32.71125,19.0575 33,18.315 33,17.53125 C33,15.84 31.5975,14.4375 29.90625,14.4375 L21.65625,14.4375 C21.32625,14.4375 20.99625,14.47875 20.7075,14.6025 C20.83125,13.65375 21.12,12.705 21.57375,11.7975 C22.275,10.3125 22.6875,8.6625 22.6875,6.97125 L22.6875,3.09375 C22.6875,1.4025 21.285,0 19.59375,0 C17.9025,0 16.5,1.4025 16.5,3.09375 C16.5,5.61 15.79875,8.085 14.52,10.23 L11.50875,15.22125 C11.055,16.005 10.18875,16.5 9.28125,16.5 L3.09375,16.5 C1.4025,16.5 0,17.9025 0,19.59375 L0,29.90625 C-2.93098879e-15,31.5975 1.4025,33 3.09375,33 Z M25.78125,30.9375 L23.71875,30.9375 L19.59375,30.9375 C19.01625,30.9375 18.5625,30.48375 18.5625,29.90625 C18.5625,29.32875 19.01625,28.875 19.59375,28.875 L25.78125,28.875 C26.35875,28.875 26.8125,29.32875 26.8125,29.90625 C26.8125,30.48375 26.35875,30.9375 25.78125,30.9375 Z M27.84375,26.8125 L25.78125,26.8125 L19.59375,26.8125 C19.01625,26.8125 18.5625,26.35875 18.5625,25.78125 C18.5625,25.20375 19.01625,24.75 19.59375,24.75 L27.84375,24.75 C28.42125,24.75 28.875,25.20375 28.875,25.78125 C28.875,26.35875 28.42125,26.8125 27.84375,26.8125 Z M29.90625,22.6875 L27.84375,22.6875 L19.59375,22.6875 C19.01625,22.6875 18.5625,22.23375 18.5625,21.65625 C18.5625,21.07875 19.01625,20.625 19.59375,20.625 L21.65625,20.625 L29.90625,20.625 C30.48375,20.625 30.9375,21.07875 30.9375,21.65625 C30.9375,22.23375 30.48375,22.6875 29.90625,22.6875 Z M21.65625,16.5 L29.90625,16.5 C30.48375,16.5 30.9375,16.95375 30.9375,17.53125 C30.9375,18.10875 30.48375,18.5625 29.90625,18.5625 L21.65625,18.5625 C21.07875,18.5625 20.625,18.10875 20.625,17.53125 C20.625,16.95375 21.07875,16.5 21.65625,16.5 Z M2.0625,19.59375 C2.0625,19.01625 2.51625,18.5625 3.09375,18.5625 L9.28125,18.5625 C10.93125,18.5625 12.4575,17.69625 13.2825,16.29375 L16.29375,11.3025 C17.77875,8.8275 18.5625,5.98125 18.5625,3.09375 C18.5625,2.51625 19.01625,2.0625 19.59375,2.0625 C20.17125,2.0625 20.625,2.51625 20.625,3.09375 L20.625,6.97125 C20.625,8.3325 20.295,9.6525 19.7175,10.89 C18.975,12.375 18.5625,14.025 18.5625,15.71625 L18.5625,17.53125 C18.5625,17.94375 18.645,18.315 18.76875,18.68625 C17.49,19.01625 16.5,20.2125 16.5,21.65625 C16.5,22.44 16.78875,23.1825 17.28375,23.71875 C16.78875,24.255 16.5,24.9975 16.5,25.78125 C16.5,26.565 16.78875,27.3075 17.28375,27.84375 C16.78875,28.38 16.5,29.1225 16.5,29.90625 C16.5,30.2775 16.5825,30.6075 16.665,30.9375 L3.09375,30.9375 C2.51625,30.9375 2.0625,30.48375 2.0625,29.90625 L2.0625,19.59375 Z" id="Shape"></path>
                </g>
            </g>
        </g>
    </g>
</svg>